<mxfile host="Electron" modified="2023-12-24T15:32:21.802Z" agent="Mozilla/5.0 (Windows NT 10.0; Win64; x64) AppleWebKit/537.36 (KHTML, like Gecko) draw.io/21.6.8 Chrome/114.0.5735.289 Electron/25.5.0 Safari/537.36" etag="j7RolKO6m5Weon7L7eHr" version="21.6.8" type="device">
  <diagram name="第 1 页" id="d-qlLgbnq9rZS_cFS39g">
    <mxGraphModel dx="1728" dy="1003" grid="1" gridSize="10" guides="1" tooltips="1" connect="1" arrows="1" fold="1" page="1" pageScale="1" pageWidth="827" pageHeight="1169" math="0" shadow="0">
      <root>
        <mxCell id="0" />
        <mxCell id="1" parent="0" />
        <mxCell id="cKecjwQHpHygs0f-UZhu-22" value="" style="rounded=0;whiteSpace=wrap;html=1;" vertex="1" parent="1">
          <mxGeometry x="560" y="195" width="410" height="400" as="geometry" />
        </mxCell>
        <mxCell id="cKecjwQHpHygs0f-UZhu-1" value="" style="rounded=0;whiteSpace=wrap;html=1;" vertex="1" parent="1">
          <mxGeometry x="50" y="195" width="410" height="400" as="geometry" />
        </mxCell>
        <mxCell id="cKecjwQHpHygs0f-UZhu-2" value="父UI控件" style="text;html=1;align=center;verticalAlign=middle;resizable=0;points=[];autosize=1;strokeColor=none;fillColor=none;" vertex="1" parent="1">
          <mxGeometry x="60" y="200" width="70" height="30" as="geometry" />
        </mxCell>
        <mxCell id="cKecjwQHpHygs0f-UZhu-3" value="" style="rounded=1;whiteSpace=wrap;html=1;fillColor=#d5e8d4;strokeColor=#82b366;" vertex="1" parent="1">
          <mxGeometry x="270" y="240" width="180" height="190" as="geometry" />
        </mxCell>
        <mxCell id="cKecjwQHpHygs0f-UZhu-6" value="" style="endArrow=none;html=1;rounded=0;" edge="1" parent="1">
          <mxGeometry width="50" height="50" relative="1" as="geometry">
            <mxPoint x="860" y="470" as="sourcePoint" />
            <mxPoint x="860" y="240" as="targetPoint" />
          </mxGeometry>
        </mxCell>
        <mxCell id="cKecjwQHpHygs0f-UZhu-7" value="Anchors区域" style="text;html=1;align=center;verticalAlign=middle;resizable=0;points=[];autosize=1;strokeColor=none;fillColor=none;fontSize=16;" vertex="1" parent="1">
          <mxGeometry x="305" y="250" width="110" height="30" as="geometry" />
        </mxCell>
        <mxCell id="cKecjwQHpHygs0f-UZhu-10" value="" style="endArrow=none;dashed=1;html=1;rounded=0;entryX=0;entryY=0;entryDx=0;entryDy=0;" edge="1" parent="1" target="cKecjwQHpHygs0f-UZhu-3">
          <mxGeometry width="50" height="50" relative="1" as="geometry">
            <mxPoint x="60" y="240" as="sourcePoint" />
            <mxPoint x="190" y="240" as="targetPoint" />
          </mxGeometry>
        </mxCell>
        <mxCell id="cKecjwQHpHygs0f-UZhu-11" value="" style="endArrow=none;dashed=1;html=1;rounded=0;exitX=1;exitY=1;exitDx=0;exitDy=0;" edge="1" parent="1" source="cKecjwQHpHygs0f-UZhu-3">
          <mxGeometry width="50" height="50" relative="1" as="geometry">
            <mxPoint x="320" y="470" as="sourcePoint" />
            <mxPoint x="450" y="540" as="targetPoint" />
          </mxGeometry>
        </mxCell>
        <mxCell id="cKecjwQHpHygs0f-UZhu-12" value="" style="rounded=0;whiteSpace=wrap;html=1;fillColor=none;" vertex="1" parent="1">
          <mxGeometry x="80" y="290" width="240" height="255" as="geometry" />
        </mxCell>
        <mxCell id="cKecjwQHpHygs0f-UZhu-13" value="" style="endArrow=none;dashed=1;html=1;rounded=0;" edge="1" parent="1">
          <mxGeometry width="50" height="50" relative="1" as="geometry">
            <mxPoint x="610" y="240" as="sourcePoint" />
            <mxPoint x="840" y="240" as="targetPoint" />
          </mxGeometry>
        </mxCell>
        <mxCell id="cKecjwQHpHygs0f-UZhu-14" value="" style="shape=crossbar;whiteSpace=wrap;html=1;rounded=1;direction=south;" vertex="1" parent="1">
          <mxGeometry x="110" y="245" width="20" height="40" as="geometry" />
        </mxCell>
        <mxCell id="cKecjwQHpHygs0f-UZhu-15" value="offset" style="text;html=1;align=center;verticalAlign=middle;resizable=0;points=[];autosize=1;strokeColor=none;fillColor=none;fontSize=16;" vertex="1" parent="1">
          <mxGeometry x="140" y="250" width="60" height="30" as="geometry" />
        </mxCell>
        <mxCell id="cKecjwQHpHygs0f-UZhu-16" value="offset" style="text;html=1;align=center;verticalAlign=middle;resizable=0;points=[];autosize=1;strokeColor=none;fillColor=none;fontSize=16;" vertex="1" parent="1">
          <mxGeometry x="355" y="460" width="60" height="30" as="geometry" />
        </mxCell>
        <mxCell id="cKecjwQHpHygs0f-UZhu-18" value="" style="shape=crossbar;whiteSpace=wrap;html=1;rounded=1;" vertex="1" parent="1">
          <mxGeometry x="325" y="490" width="120" height="20" as="geometry" />
        </mxCell>
        <mxCell id="cKecjwQHpHygs0f-UZhu-23" value="" style="rounded=0;whiteSpace=wrap;html=1;fillColor=none;" vertex="1" parent="1">
          <mxGeometry x="580" y="290" width="240" height="255" as="geometry" />
        </mxCell>
        <mxCell id="cKecjwQHpHygs0f-UZhu-24" value="" style="endArrow=none;dashed=1;html=1;rounded=0;entryX=0;entryY=0;entryDx=0;entryDy=0;" edge="1" parent="1">
          <mxGeometry width="50" height="50" relative="1" as="geometry">
            <mxPoint x="50" y="430" as="sourcePoint" />
            <mxPoint x="260" y="430" as="targetPoint" />
          </mxGeometry>
        </mxCell>
        <mxCell id="cKecjwQHpHygs0f-UZhu-25" value="" style="shape=crossbar;whiteSpace=wrap;html=1;rounded=1;direction=south;" vertex="1" parent="1">
          <mxGeometry x="110" y="440" width="20" height="100" as="geometry" />
        </mxCell>
        <mxCell id="cKecjwQHpHygs0f-UZhu-26" value="" style="endArrow=none;dashed=1;html=1;rounded=0;exitX=1;exitY=1;exitDx=0;exitDy=0;" edge="1" parent="1">
          <mxGeometry width="50" height="50" relative="1" as="geometry">
            <mxPoint x="270" y="435" as="sourcePoint" />
            <mxPoint x="270" y="545" as="targetPoint" />
          </mxGeometry>
        </mxCell>
        <mxCell id="cKecjwQHpHygs0f-UZhu-27" value="" style="shape=crossbar;whiteSpace=wrap;html=1;rounded=1;" vertex="1" parent="1">
          <mxGeometry x="90" y="490" width="170" height="20" as="geometry" />
        </mxCell>
        <mxCell id="cKecjwQHpHygs0f-UZhu-28" value="" style="shape=crossbar;whiteSpace=wrap;html=1;rounded=1;direction=south;" vertex="1" parent="1">
          <mxGeometry x="640" y="245" width="20" height="40" as="geometry" />
        </mxCell>
        <mxCell id="cKecjwQHpHygs0f-UZhu-29" value="offset" style="text;html=1;align=center;verticalAlign=middle;resizable=0;points=[];autosize=1;strokeColor=none;fillColor=none;fontSize=16;" vertex="1" parent="1">
          <mxGeometry x="680" y="250" width="60" height="30" as="geometry" />
        </mxCell>
        <mxCell id="cKecjwQHpHygs0f-UZhu-30" value="" style="shape=waypoint;sketch=0;fillStyle=solid;size=6;pointerEvents=1;points=[];fillColor=none;resizable=0;rotatable=0;perimeter=centerPerimeter;snapToPoint=1;" vertex="1" parent="1">
          <mxGeometry x="670" y="340" width="20" height="20" as="geometry" />
        </mxCell>
        <mxCell id="cKecjwQHpHygs0f-UZhu-31" value="Pivot" style="text;html=1;align=center;verticalAlign=middle;resizable=0;points=[];autosize=1;strokeColor=none;fillColor=none;fontSize=16;" vertex="1" parent="1">
          <mxGeometry x="650" y="310" width="60" height="30" as="geometry" />
        </mxCell>
        <mxCell id="cKecjwQHpHygs0f-UZhu-33" value="" style="shape=crossbar;whiteSpace=wrap;html=1;rounded=1;" vertex="1" parent="1">
          <mxGeometry x="590" y="360" width="220" height="20" as="geometry" />
        </mxCell>
        <mxCell id="cKecjwQHpHygs0f-UZhu-34" value="Width" style="text;html=1;align=center;verticalAlign=middle;resizable=0;points=[];autosize=1;strokeColor=none;fillColor=none;" vertex="1" parent="1">
          <mxGeometry x="680" y="380" width="50" height="30" as="geometry" />
        </mxCell>
        <mxCell id="cKecjwQHpHygs0f-UZhu-35" value="" style="endArrow=none;dashed=1;html=1;rounded=0;" edge="1" parent="1">
          <mxGeometry width="50" height="50" relative="1" as="geometry">
            <mxPoint x="610" y="470" as="sourcePoint" />
            <mxPoint x="840" y="470" as="targetPoint" />
          </mxGeometry>
        </mxCell>
        <mxCell id="cKecjwQHpHygs0f-UZhu-36" value="" style="shape=crossbar;whiteSpace=wrap;html=1;rounded=1;direction=south;" vertex="1" parent="1">
          <mxGeometry x="640" y="480" width="20" height="50" as="geometry" />
        </mxCell>
        <mxCell id="cKecjwQHpHygs0f-UZhu-37" value="父UI控件" style="text;html=1;align=center;verticalAlign=middle;resizable=0;points=[];autosize=1;strokeColor=none;fillColor=none;" vertex="1" parent="1">
          <mxGeometry x="570" y="200" width="70" height="30" as="geometry" />
        </mxCell>
      </root>
    </mxGraphModel>
  </diagram>
</mxfile>
